<svg xmlns="http://www.w3.org/2000/svg" width="1280" height="760" viewBox="0 0 1280 760">
  <defs>
    <style>
      .bg { fill: #f8fafc; }
      .frame { fill: #ffffff; stroke: #cbd5e1; stroke-width: 2; rx: 10; }
      .topbar { fill: #1f2937; }
      .title { font: 700 16px Arial, sans-serif; fill: #ffffff; }
      .h1 { font: 700 22px Arial, sans-serif; fill: #0f172a; }
      .h2 { font: 700 14px Arial, sans-serif; fill: #111827; }
      .text { font: 13px Arial, sans-serif; fill: #334155; }
      .code { font: 12px 'Courier New', monospace; fill: #0f172a; }
      .op { fill: #ecfeff; stroke: #0891b2; stroke-width: 1.5; rx: 8; }
      .panel { fill: #fafafa; stroke: #d9d9d9; stroke-width: 1.2; rx: 6; }
      .badge { fill: #2563eb; }
      .badgeText { font: 700 11px Arial, sans-serif; fill: #ffffff; }
    </style>
  </defs>

  <rect class="bg" x="0" y="0" width="1280" height="760"/>

  <rect class="frame" x="34" y="28" width="1212" height="704"/>
  <rect class="topbar" x="34" y="28" width="1212" height="44"/>
  <text x="54" y="56" class="title">Swagger UI — x-openapi-flow integration result</text>

  <text x="64" y="106" class="h1">Payment API</text>
  <text x="64" y="130" class="text">/payments  •  POST  •  operationId: createPayment</text>

  <rect class="op" x="60" y="152" width="1160" height="314"/>
  <text x="82" y="180" class="h2">Create and authorize a payment</text>
  <text x="82" y="202" class="text">The operation summary appears as usual, plus a custom x-openapi-flow panel.</text>

  <rect class="panel" x="82" y="222" width="920" height="220"/>
  <text x="96" y="246" class="h2">x-openapi-flow</text>
  <text x="96" y="268" class="text">version: 1.0  |  current_state: AUTHORIZED</text>
  <text x="96" y="290" class="text">next_operation_id: capturePayment</text>
  <text x="96" y="312" class="text">prerequisite_field_refs: createPayment:response.201.body.id</text>
  <text x="96" y="334" class="text">propagated_field_refs: createPayment:request.body.amount, currency</text>

  <rect class="badge" x="1018" y="224" width="188" height="26" rx="13"/>
  <text x="1035" y="241" class="badgeText">showExtensions: true</text>

  <rect class="frame" x="636" y="260" width="346" height="170"/>
  <text x="654" y="282" class="h2">Payment flow graph preview</text>

  <rect class="state" x="650" y="305" width="84" height="30" rx="8" fill="#f8fafc" stroke="#334155" stroke-width="1.3"/>
  <text x="671" y="324" class="code">CREATED</text>

  <rect class="state" x="770" y="305" width="96" height="30" rx="8" fill="#f8fafc" stroke="#334155" stroke-width="1.3"/>
  <text x="789" y="324" class="code">AUTHORIZED</text>

  <rect class="state" x="902" y="305" width="70" height="30" rx="8" fill="#f8fafc" stroke="#334155" stroke-width="1.3"/>
  <text x="917" y="324" class="code">PAID</text>

  <line x1="734" y1="320" x2="770" y2="320" stroke="#334155" stroke-width="1.4"/>
  <polygon points="770,320 764,317 764,323" fill="#334155"/>
  <line x1="866" y1="320" x2="902" y2="320" stroke="#334155" stroke-width="1.4"/>
  <polygon points="902,320 896,317 896,323" fill="#334155"/>

  <text x="729" y="300" class="text">createPayment</text>
  <text x="861" y="300" class="text">capturePayment</text>

  <rect class="state" x="770" y="370" width="96" height="30" rx="8" fill="#fef2f2" stroke="#b91c1c" stroke-width="1.2"/>
  <text x="796" y="389" class="code" fill="#7f1d1d">REFUNDED</text>
  <line x1="937" y1="335" x2="841" y2="370" stroke="#b91c1c" stroke-width="1.2"/>
  <polygon points="841,370 846,365 848,371" fill="#b91c1c"/>
  <text x="874" y="358" class="text" fill="#7f1d1d">refundPayment</text>

  <rect class="frame" x="60" y="500" width="1160" height="214"/>
  <text x="82" y="528" class="h2">How this view is produced</text>
  <text x="82" y="550" class="text">1) Open flow-spec/examples/swagger-ui/index.html</text>
  <text x="82" y="570" class="text">2) Plugin reads operation["x-openapi-flow"]</text>
  <text x="82" y="590" class="text">3) Plugin renders summary + optional graph image</text>

  <text x="82" y="628" class="code">window.XOpenApiFlowGraphImageUrl = ".../graph-order-guided.svg"</text>
  <text x="82" y="648" class="code">plugins: [window.XOpenApiFlowPlugin], showExtensions: true</text>
</svg>
